<svg id="Layer_1" data-name="Layer 1" xmlns="http://www.w3.org/2000/svg" viewBox="0 0 245 230"><defs><style>.cls-1{fill:#fcba7f;}.cls-2{fill:#ba4752;}.cls-3{fill:#db9264;}.cls-4{fill:#9b8e7c;}.cls-5,.cls-6{fill:#fff;}.cls-6{font-size:18px;font-family:Lato-Bold, Lato;font-weight:700;}.cls-7{letter-spacing:-0.02em;}</style></defs><path class="cls-1" d="M186.59,19a5.21,5.21,0,0,0-.2.52c-20.9-2.08-29.66-7.86-56.61-7.36-32.66.64-29.82,29.68-23.85,63.49-.49.89-6.62,3.2-7.08,4.09-3.4-8.53-9.08-29.68-20.76-18.93l-1.61,1.87c0-.15-.09-.31-.14-.46-2.55,6.46-3.23,15.46.46,26.65.44,1.36,5.37,33.42,18.47,23.32.22,16.69-3.33,42.88-4.7,63.51,20.53,34.24,76.91,44.43,84.76,14h0c-.49-5.69-1-12.26-1.43-19l10.84-2,19.47-79.36L200.85,78.9l-1.66-13S193,40.55,186.59,19Z"/><path class="cls-2" d="M242,219c-23.47-13.41-65.57-28.76-66.68-29.17h0c-7.85,30.39-64.23,20.2-84.76-14-.18-.29-.36-.59-.53-.89-.85-.11-15.73,6.79-15.73,6.79S19.86,206.27,4.49,216.56C4.07,218.91,1.41,225.73,0,230H245C244.1,226.62,242.44,220.42,242,219Z"/><path class="cls-3" d="M163.88,109.73c-2.68-.56-5.46-.25-6,3a19.47,19.47,0,0,1,6-.4C163.87,111.43,163.85,110.58,163.88,109.73Z"/><path class="cls-3" d="M153.78,104.72a8.86,8.86,0,0,0,1.56,9c-3.72-1.18-6.46-5.56-2.57-8.61Z"/><path class="cls-3" d="M147.67,166.89l-35-18.51-9.23-48.24a31.52,31.52,0,0,1-1.68,6.94L108.26,153l37,17.22,33.42-.68Z"/><path class="cls-4" d="M184.1.15c-8.32-.21-16.65-.23-25,.14-15.51.7-31.58,2-46.75,5.6-12.1,2.88-21.21,7.83-27.33,19.39-4.8,9.07-7.7,20.75-6.27,30.41a16.55,16.55,0,0,1,.06,4.55c10.89-8.33,20.28,21.27,24,31q3.47-1.87,6.94-3.72c-5.89-33.72-2.54-68.87,21.19-69.73,26.94-1,34.55-.35,55.45,1.73a5.21,5.21,0,0,1,.2-.52c.56-1.36,2.16-4.8,2.18-5.12a41.56,41.56,0,0,1,8.57-12.1c-2.26-.5-4.53-1-6.79-1.45C188.4.28,186.25.2,184.1.15Z"/><path class="cls-5" d="M186.54,87.71a78.8,78.8,0,0,1,11.08.31l.94-.54C194.38,72,179.24,74.26,173.82,84.3l-.61,3.91c.12.15.25.29.37.43C177.87,88.08,182.21,87.86,186.54,87.71Z"/><path class="cls-5" d="M144.83,89.43a101.11,101.11,0,0,1,11.95.38c-4.16-17.86-22-16.57-29.32-5.34L126.39,89l.07.09C132.58,88.9,138.76,89.47,144.83,89.43Z"/><path d="M144.7,76.46c-16-2.14-18.19,10.67-18.44,12.64h.11A17.64,17.64,0,0,1,132.24,83a8.42,8.42,0,0,0,.89,6.1c3.91.11,7.83.34,11.7.31h1.79a8.1,8.1,0,0,0,1-2.29,8.37,8.37,0,0,0-.74-6.26c8.28,1.82,9.76,7.38,10,8.95h0C156.25,79.43,152.59,77.52,144.7,76.46Z"/><path d="M176.73,82.89c0,.13-.09.24-.11.37a7.7,7.7,0,0,0,.75,5c3-.27,6.11-.41,9.17-.52.89,0,1.79,0,2.68-.06a6.86,6.86,0,0,0,.43-1.46,7.48,7.48,0,0,0-1.89-6.57c9.56,1.58,11,7.85,11,7.85,1.62-8.63-4.2-11.83-10.79-11.88-15.93-.13-14.73,12.31-14.73,12.31A15.37,15.37,0,0,1,176.73,82.89Z"/><path class="cls-3" d="M83.14,73.47c.12.55.23,1.11.32,1.68,4-1.79,8,4.77,10.05,11.08-4.29.8-4.54,8.3-1.57,11l0-.07c.25-.23.47-.45.7-.64a7.64,7.64,0,0,1,1.51-8A24.85,24.85,0,0,1,95,93C96.53,85.45,89.21,68.18,83.14,73.47Z"/><path class="cls-4" d="M174.7,73.72s17.86-4,19.33-4.15,4.45,4.49,4.45,4.49l.17-8.77-4.47-8.13-22.73,3.75,3.25,12.14Z"/><path class="cls-4" d="M152.75,59.48l-20-.45-10.78,6.75.19,8.76s4.51-4.21,6.27-4c1.4.13,21.31.52,26.76,1.46C155.07,69.76,152.68,61.72,152.75,59.48Z"/><path class="cls-3" d="M169,87.55l.61,7.9,5.82,13.31-4.11,4.33,9.28-3.34-7.78-16.58-1.61-7.49S168,87.76,169,87.55Z"/><path class="cls-5" d="M147.67,125.6s26.29,4,36.12-.91l-3.72,11.09-26.78.19Z"/><path class="cls-4" d="M190.37,123.43c-2.54-8.37-13.21-9.25-20.81-8.94-.36,1.48-.89,2.44-1.36,3.89,32.53-4.75,14.76,38.88,7.82,38.85-7.93,0-4.38-12.53,0-14.75-6.33,0-12.7.49-19,.26,10,5.44.87,22.14-6.91,10.28-2.76-4.2-8.65-22.55-2.89-31,3.14-4.61,17.95-3.69,16.86-3.62,0,0,1-2.78,1.46-3.89l-5.53-.1c-32.94-1.51-23.84,47.32-4,52.26,10.37,2.58,23,3.46,28.26-6.68C188.37,152.12,193.06,132.33,190.37,123.43Z"/><text class="cls-6" transform="translate(56.17 208.5)"><tspan class="cls-7">C</tspan><tspan x="11.63" y="0">OMING SOON</tspan></text></svg>