<svg id="Layer_1" data-name="Layer 1" xmlns="http://www.w3.org/2000/svg" viewBox="0 0 245 230"><defs><style>.cls-1{fill:#f9a666;}.cls-2,.cls-5{fill:#fff;}.cls-3{fill:#c3724a;}.cls-4{fill:#6b7988;}.cls-5{font-size:18px;font-family:Lato-Bold, Lato;font-weight:700;}.cls-6{letter-spacing:-0.02em;}</style></defs><path class="cls-1" d="M206.24,87.5s1.45-15.09-2-28.24c-2.45-9.31-8-20.95-12.4-28.64-23.61-7.55-55.15-7.47-71.8,7.9a38.42,38.42,0,0,0-13.16,19.16c-4.26,14.19-3.89,30.19,2.91,43.73a20,20,0,0,0-5.13,1.53,6.54,6.54,0,0,0-3.69,1.92c-.25.15-.52.33-.77.5C103,94.87,98.68,76.1,81.62,80.29c-5.91,1.48-9.33,7.13-11.14,12.45a47.62,47.62,0,0,0,1.25,4.75c3.4,10.65,9.69,17.91,16.6,18.66l-3.27-.39,3,1.94c0,.26-.09.51-.13.78-1.73,8.68-6.5,39.38-9.27,57.5,20.54,33.17,82.87,44.34,92.78,16.55l-.94-14.71.58-7.46c12.83-.31,19.53-3,20.29-4.74,1.7-3.76,19.64-59,19.88-61.41C212.06,96.1,206.24,87.5,206.24,87.5Z"/><path class="cls-2" d="M192.07,90a88.11,88.11,0,0,1,11.71-.76c.32-.2.63-.41.94-.62-5.89-14.86-21.65-11.19-26.41-.76L178,91.79l.43.39C183,91.21,187.51,90.58,192.07,90Z"/><path class="cls-2" d="M189.52,121.07s-29.76,2.19-45.7,0c0,0,8.71,19.48,12.72,19.82,6,.5,25.72.29,27.06-3.47C189.78,120.05,189.52,121.07,189.52,121.07Z"/><path class="cls-3" d="M165.05,167.81s-50.15.58-58.52-37.14C106.53,130.67,100.66,180.66,165.05,167.81Z"/><path d="M81.62,80.29c17.06-4.19,21.4,14.58,18.56,25.07.25-.17.52-.35.77-.5a6.54,6.54,0,0,1,3.69-1.92,20,20,0,0,1,5.13-1.53c-6.8-13.54-7.17-29.54-2.91-43.73A38.42,38.42,0,0,1,120,38.52c16.65-15.37,48.19-15.45,71.8-7.9l.06,0c-.65-5.69.9-12.87,2.88-19.52-23.7-10-60.75-18.67-101.11-.65l2.15,5C82.51,21.61,68.4,32.19,66,57.3c-.32,3.45,1.07,27.34,4.41,35.61l.06-.17C72.29,87.42,75.71,81.77,81.62,80.29Z"/><path class="cls-2" d="M145.49,92a115.62,115.62,0,0,1,12.53.81c-3.71-17.66-22.46-17-30.58-6.3L126.16,91a.31.31,0,0,0,.07.09C132.65,91.08,139.13,91.86,145.49,92Z"/><path d="M145.82,79.32c-16.7-2.68-19.48,9.8-19.8,11.72h.11a17.91,17.91,0,0,1,6.38-5.74,7.81,7.81,0,0,0,.71,6c4.11.26,8.21.62,12.27.73l1.89.06a8.07,8.07,0,0,0,1.12-2.21,7.77,7.77,0,0,0-.55-6.16c8.62,2.08,10,7.59,10.19,9.14h0C157.84,82.66,154.08,80.65,145.82,79.32Z"/><path d="M161.13,66.81l-23.95.13-10.64,5.47a26,26,0,0,0-1.24,5.16c5.89-2,13-4.27,14.58-4.56,2.59-.46,20.06,1.27,20.87.83C161.25,73.56,161.13,66.81,161.13,66.81Z"/><polygon points="197.25 67.14 180.53 67.52 179.13 75.28 196.73 72.84 205.96 74.04 206.1 69.51 197.25 67.14"/><path d="M181.24,86.21c0,.13-.07.24-.08.37a7.21,7.21,0,0,0,1.27,4.83c3.19-.56,6.42-1,9.64-1.39l2.81-.32a6.49,6.49,0,0,0,.32-1.48,7.15,7.15,0,0,0-2.63-6.3c10.24.64,12.4,6.68,12.4,6.68.88-8.66-5.57-11.26-12.53-10.68-16.83,1.41-14.37,13.55-14.37,13.55A15,15,0,0,1,181.24,86.21Z"/><path class="cls-3" d="M174.61,149a25.87,25.87,0,0,0-2.56,4.94c3,2.24.94,7.31-1.43,8.54,3,1.25,6.19-1,6.27-5.54,0-1.82-1.21-3-1.24-4.26s.67-2.6,1.08-3.83a3.71,3.71,0,0,0-2.26-.23Z"/><path class="cls-3" d="M173.15,93.19c-1.12-2.66.26-5.25.78-7.87v-.07a13.06,13.06,0,0,0-2.53.81c-1.18,2.45-2.14,5.1-2.06,6.62.08,1.79,2.22,4.17,3.38,6.08,3.26,5.38,7.64,9.48-2,13.8,3.12,0,5.18.63,9.21-1C184.49,102.3,174.25,95.82,173.15,93.19Z"/><path class="cls-4" d="M241.93,219.31c-24.66-13.17-70-28.26-70-28.26-.14.51-.3,1-.47,1.48C161.53,220.32,99.2,209.15,78.66,176a1,1,0,0,1-.08-.14c-.88-.1-58,31.17-73.92,41.14-.44,2.28-3.2,8.88-4.66,13H245C244.06,226.73,242.35,220.72,241.93,219.31Z"/><path class="cls-3" d="M166,111c-2.67-2.74-5.41-1.82-7.64,1.32C159.57,112.4,166,111,166,111Z"/><polygon class="cls-3" points="144.16 118.19 140.54 120.45 139.69 126.63 136.71 119.42 144.16 118.19"/><text class="cls-5" transform="translate(56.17 208.5)"><tspan class="cls-6">C</tspan><tspan x="11.63" y="0">OMING SOON</tspan></text></svg>