<svg id="Layer_1" data-name="Layer 1" xmlns="http://www.w3.org/2000/svg" viewBox="0 0 245 230"><defs><style>.cls-1{fill:#fcbc79;}.cls-2,.cls-6{fill:#fff;}.cls-3{fill:#e38f43;}.cls-4{fill:#001523;}.cls-5{fill:#4c6c98;}.cls-6{font-size:18px;font-family:Lato-Bold, Lato;font-weight:700;}.cls-7{letter-spacing:-0.02em;}</style></defs><path class="cls-1" d="M205.05,59.43c-.06-.45-.11-.9-.17-1.34,0-.09,0-.18,0-.28-.21-1.42-.44-2.84-.68-4.25-.69-4.1-1.48-8.19-2.32-12.26-.13-.65-.28-1.3-.44-1.94a83.1,83.1,0,0,1-26.47-4.91c.5,1.34,1.87,2.77,2.4,3.83-11.57.53-23.65-4.86-34.84-7.49,1.07,2.32,1.25,5.78,1.91,7.49-9.74-1.05-18.41-6.55-28-8C114.3,47.74,103,61.85,110,81.32c-.86,1.53-6.33,4.5-9.15,4.46.62-12.65-13.52-32.25-26.14-20.69a28.17,28.17,0,0,0-3.53,10.54c-2.4,14.82,6.19,36.91,12.4,37,2.83,0,4.26-.65,5.26-1.76,0,2.37-.11,13.35-.26,19.62-.12,4.66-.21,9.33-.3,14l-1.93,31.78-.09.72c20.44,33,78.91,42.63,88.39,14.68l-2-20.93c2.24-.08,4.31-.24,6.19-.47,0-.1.09-.2.14-.3.64-1.43,1.27-2.85,1.9-4.28.32-.71.63-1.43.94-2.14l.06-.13.45-1.06c2.54-5.92,21.12-62.49,21.69-65.69.28-1.6.54-3.22.79-4.83.12-.76.23-1.51.34-2.27.07-.57.05-3.52.15-4.08.14-.84.78-7,.84-11.74q-.15-3.36-.4-6.7C205.62,64.51,205.35,62,205.05,59.43Z"/><path class="cls-2" d="M188.49,89.2a89.3,89.3,0,0,1,12.35,0l1-.61c-5.17-16.12-22-13.24-27.68-2.51l-.55,4.13.42.44C178.83,89.87,183.66,89.5,188.49,89.2Z"/><path class="cls-3" d="M170.35,169.25s-33.69-1.48-49.18-13.37c-8.15-6.25-12.21-16.49-15.5-30.21C105.67,125.67,101.34,174.06,170.35,169.25Z"/><path class="cls-2" d="M142.3,87.85a120.79,120.79,0,0,1,13.09,1.77c-2.54-19-22.26-19.69-31.61-8.9l-1.69,4.57.07.11C128.9,85.9,135.63,87.2,142.3,87.85Z"/><path class="cls-4" d="M143.63,74.41c-17.33-4-21.2,9-21.69,11h.12a19,19,0,0,1,7.13-5.62,8.43,8.43,0,0,0,.29,6.42c4.29.57,8.57,1.25,12.82,1.66l2,.2a8.69,8.69,0,0,0,1.35-2.26,8.32,8.32,0,0,0-.11-6.57c8.89,2.84,9.89,8.77,10,10.42h0C156,78.81,152.18,76.42,143.63,74.41Z"/><path class="cls-4" d="M177.38,84.46c0,.14-.09.26-.11.39a7.68,7.68,0,0,0,1,5.2c3.38-.39,6.8-.64,10.21-.85q1.48-.09,3-.15a7.27,7.27,0,0,0,.44-1.55,7.62,7.62,0,0,0-2.32-6.84c10.7,1.33,12.56,7.88,12.56,7.88,1.51-9.13-5.09-12.3-12.43-12.13-17.77.4-16,13.43-16,13.43A16.2,16.2,0,0,1,177.38,84.46Z"/><path class="cls-5" d="M242,219.33c-24.39-13.14-66.9-28.94-66.9-28.94-.12.44-.25.86-.39,1.29C165.2,219.63,106.73,210,86.29,177l-.2-.3c-.86-.11-16.12,6.56-16.12,6.56S24.62,204.37,8.86,214.31c-.08.4-7.42,11.56-8.86,15.69H245C244.07,226.74,242.38,220.74,242,219.33Z"/><path class="cls-4" d="M100.88,85.78c2.82,0,8.29-2.93,9.15-4.46-7.08-19.47,4.27-33.58,6.34-51,9.62,1.46,18.29,7,28,8-.66-1.71-.84-5.17-1.91-7.49,11.19,2.63,23.27,8,34.84,7.49-.53-1.06-1.9-2.49-2.4-3.83a83.1,83.1,0,0,0,26.47,4.91,55.92,55.92,0,0,0,9.37-.6C202.33,6.26,162,.87,133.71.31L131.44.25C112.91-.63,83.21-.34,77.17,21.72c2.7-2.19,2.36-1,5.27-2.61-9.86,12-6.8,31.84-8.32,46.57l.62-.59C87.36,53.53,101.5,73.13,100.88,85.78Z"/><polygon class="cls-4" points="158.05 70.86 132.54 65.35 119.64 68.19 120.61 63.2 132.76 57.4 158.41 61.59 158.05 70.86"/><path class="cls-3" d="M169.78,82.45l-.31,7.73s4.56,8.09,4.87,9.84,3.23,17.84,3.23,17.84l-16.72-.73,11.06-3.75-1.83-11.95-4.86-10.54Z"/><path class="cls-3" d="M164.89,139.7l-.91,3s5.78,3.56,4,5.93a10.47,10.47,0,0,1-4.56,3.27s2.13-2.67.3-4.75a20.88,20.88,0,0,0-4.25-3.56Z"/><polygon class="cls-4" points="176.81 62.99 200.3 62.84 202.9 70.3 202.5 73.84 197.51 69.53 177.79 70.56 176.81 62.99"/><path class="cls-2" d="M177.48,126.26c-.9-.59-7.17,3.5-26-1.32-10.31-2.63-14.05-4.52-14.05-4.52s3.59,7,10.17,9.63,27.8,4.08,27.8,4.08Z"/><path class="cls-3" d="M137.85,115.46l-5.47,1.07s-.55,7.48-.37,7-4.2-9.62-4.2-9.62Z"/><text class="cls-6" transform="translate(56.17 208.5)"><tspan class="cls-7">C</tspan><tspan x="11.63" y="0">OMING SOON</tspan></text></svg>