<svg id="Layer_1" data-name="Layer 1" xmlns="http://www.w3.org/2000/svg" viewBox="0 0 245 230"><defs><style>.cls-1{fill:#fcbc79;}.cls-2,.cls-9{fill:#fff;}.cls-3{fill:#001523;}.cls-4{fill:#df8f5f;}.cls-5{fill:#7b560f;}.cls-6{fill:none;}.cls-7{fill:#956037;}.cls-8{fill:#32475e;}.cls-9{font-size:18px;font-family:Lato-Bold, Lato;font-weight:700;}.cls-10{letter-spacing:-0.02em;}</style></defs><path class="cls-1" d="M206.49,85.15q-1.32-9.68-2.31-19.39c-.31-3.09-.51-6.19-.74-9.29-.05,0-.11,0-.16-.1-1-1.62-23.72-11.95-23.72-11.95s1.7,9.69.68,9.36S155,45.52,155,45.52s-1.86,7.62-3.22,7-23-4.52-23-4.52,3.28,8.33,2.7,8.2c-3-.71-21-1.25-22.36.84-.56.87-3,19.07-4.4,27.14s-1,21-1,21l-6-.47c4.66-37.66-12.11-42.5-23-31.06-3.92,4.1-4.87,11.72-4.47,17.72.12.48,1,4.9,1.31,6.74s.7,3.2.7,3.2l-.28-.86c1.82,8.8,6,15,10.87,15a6.31,6.31,0,0,0,3.42-1.06c1.86,6,2.47,55.4,1.75,61.54-.06.53-.92.83-1.2.93h.06c20.75,33.28,77.12,44.12,85.31,14.93l-.35-19.06h.42a52.51,52.51,0,0,0,6.83-.74l.3,0,1.7-4.34c.3-.66,1.25-2.8,1.4-3.15,2.56-5.83,5-11.69,7.48-17.56,4.07-9.7,11.74-33.29,11.89-33.89a120.43,120.43,0,0,0,5.05-25.29C206.72,86.8,206.6,86,206.49,85.15Z"/><path class="cls-2" d="M189.65,88.72a94.19,94.19,0,0,1,12.46,0l1-.59C197.93,72.2,181,75,175.23,85.61l-.56,4.06.43.44C179.91,89.39,184.78,89,189.65,88.72Z"/><path class="cls-2" d="M142.12,89.56a124.6,124.6,0,0,1,13.29.9C151.54,72,131.65,72.54,123,83.75l-1.38,4.6.08.1C128.5,88.51,135.37,89.35,142.12,89.56Z"/><path class="cls-3" d="M142.53,76.26c-17.72-2.87-20.71,10.17-21.07,12.18h.12a18.9,18.9,0,0,1,6.79-6,8.11,8.11,0,0,0,.73,6.29c4.36.29,8.71.68,13,.81l2,.07a8.18,8.18,0,0,0,1.2-2.31,8,8,0,0,0-.56-6.45c9.14,2.22,10.56,8,10.77,9.6h0C155.26,79.8,151.27,77.69,142.53,76.26Z"/><path class="cls-3" d="M178.45,84.05c0,.13-.09.25-.11.39a7.4,7.4,0,0,0,1,5.12c3.42-.38,6.86-.63,10.3-.84q1.5-.09,3-.15a6.93,6.93,0,0,0,.44-1.53,7.41,7.41,0,0,0-2.34-6.74c10.79,1.32,12.66,7.77,12.66,7.77,1.53-9-5.12-12.12-12.53-11.95-17.92.39-16.15,13.23-16.15,13.23A15.75,15.75,0,0,1,178.45,84.05Z"/><path class="cls-4" d="M168.05,150.3c-.71-.42-1.4-.87-2.07-1.34-.49,1.3-.95,2.78-1.33,3.93,2.76,2.84.87,9.28-1.33,10.84,2.83,1.57,5.75-1.27,5.82-7,0-2.3-2.64-2.22-2.68-3.78C166.46,152.58,168,150.63,168.05,150.3Z"/><path class="cls-4" d="M165.51,81.87s.31.37.82,1.08a58.24,58.24,0,0,1,10.11,36.77l-15.66,1.39.36-3.13,11.66-1.73Z"/><path class="cls-5" d="M155.47,70.49a5.35,5.35,0,0,0-1.78-.51c-5.28-1-20.42-1.85-26.27.51L124,66.32l27.62-3.13Z"/><path class="cls-5" d="M176.65,73a3.79,3.79,0,0,1,1.47-.49c4.37-.89,16.85-1.58,21.62.85l2.92-4.12L180,65.75Z"/><path class="cls-4" d="M180,131.48c-.15.63-.3,1.26-.43,1.9A62.3,62.3,0,0,1,160.42,135c-6.91-1-16.09-3.94-20.13-9.84C151.91,129.39,167.14,134.77,180,131.48Z"/><path class="cls-6" d="M71,92.31c-.15-.47-.28-1-.39-1.43a63.56,63.56,0,0,0,.91,7.2A50.08,50.08,0,0,1,71,92.31Z"/><path class="cls-7" d="M202.79,28.82s-64.44-60.19-125.27-6.6c0,0-14.95,32.55-7.5,72.29l.68,2.11a4.34,4.34,0,0,1,.52-.07,56.89,56.89,0,0,1-.65-5.67c-.4-6,.15-13.16,4.07-17.26,10.9-11.44,27.67-6.6,23,31.06l6,.47s-.34-12.92,1-21,3.84-26.27,4.4-27.14c1.35-2.09,19.39-1.55,22.36-.84.58.13-2.7-8.2-2.7-8.2s21.69,3.88,23,4.52,3.22-7,3.22-7,24.23,7.94,25.25,8.26-.68-9.36-.68-9.36,22.71,10.33,23.72,11.95c.05.08.11.11.16.1C204.53,56.27,206.66,39.58,202.79,28.82Z"/><path class="cls-8" d="M241.94,219.49c-22.45-11.82-62.09-25.2-68.84-27.45l-1-.33c-8.19,29.19-64.56,18.35-85.31-14.93h-.06c-2.12.5-66.36,30.71-82.09,40.41-.44,2.24-3.2,8.73-4.65,12.8H245C244.07,226.79,242.36,220.88,241.94,219.49Z"/><path class="cls-4" d="M138.18,121.58h0a5.72,5.72,0,0,1,.12-.83,2.06,2.06,0,0,1,.12-.35c-3.32-1.86-7.85,2.37-5.41,6.6.58-2.73,3.38-4.86,5.15-5.42C138.21,121.34,138.24,120.92,138.18,121.58Z"/><path class="cls-4" d="M143.1,170.61c-11.5-2.13-27.89-18-30.69-32.43l-.13.07c.66,6.85,3.6,29.72,13.49,32.68,11.41,3.42,33,4.4,41.75.87a1.37,1.37,0,0,1,0-.19A102.06,102.06,0,0,1,143.1,170.61Z"/><text class="cls-9" transform="translate(56.17 208.5)"><tspan class="cls-10">C</tspan><tspan x="11.63" y="0">OMING SOON</tspan></text></svg>