<svg width="181" height="37" viewBox="0 0 181 37" fill="none" xmlns="http://www.w3.org/2000/svg">
<path d="M45.4702 21.5152H48.0093C48.657 23.7638 50.367 24.556 53.3984 24.556C55.8338 24.556 57.6215 23.7127 57.6215 22.154C57.6215 20.5698 55.8079 20.2376 52.8025 19.5221C48.2943 18.3978 46.3252 17.6057 46.3252 14.9738C46.3252 11.8564 49.0975 10.0933 52.9579 10.0933C56.7924 10.0933 59.2538 11.8308 59.9274 14.7183H57.4402C56.8183 13.0829 55.2379 12.393 53.0356 12.393C50.3929 12.393 48.8384 13.3895 48.8384 14.7694C48.8384 16.0725 50.1597 16.4047 53.4502 17.2224C57.6474 18.2445 60.1606 18.8833 60.1606 21.9241C60.1606 25.2459 57.1033 26.8557 53.3984 26.8557C49.0975 26.9068 46.1179 24.9393 45.4702 21.5152Z" fill="#30475E"/>
<path d="M79.3332 10.451V26.5746H76.8719V23.3039C75.6023 25.4758 73.4001 26.8812 70.576 26.8812C66.1197 26.8812 62.9329 23.355 62.9329 18.5C62.9329 13.5939 66.1456 10.1188 70.576 10.1188C73.4001 10.1188 75.6283 11.5497 76.8719 13.7472V10.4254H79.3332V10.451ZM76.8719 18.5C76.8719 14.9482 74.3328 12.4185 71.0165 12.4185C67.7001 12.4185 65.3942 14.9737 65.3942 18.5C65.3942 22.0518 67.726 24.5815 71.0165 24.5815C74.3587 24.5815 76.8719 22.0518 76.8719 18.5Z" fill="#30475E"/>
<path d="M97.9617 16.328V26.5746H95.5004V16.8135C95.5004 13.9005 94.0495 12.4441 91.3549 12.4441C88.0127 12.4441 86.1731 14.7693 86.1731 18.3211V26.5746H83.7118V10.451H86.1731V13.645C87.2613 11.4731 89.1786 10.1188 92.0286 10.1188C95.7336 10.1188 97.9617 12.3929 97.9617 16.328Z" fill="#30475E"/>
<path d="M101.537 18.5C101.537 13.6961 105.19 10.1188 109.984 10.1188C113.792 10.1188 117.057 12.3674 117.912 16.0725H115.347C114.569 13.7728 112.497 12.3674 109.958 12.3674C106.512 12.3674 103.999 14.9482 103.999 18.5C103.999 22.0773 106.538 24.6326 109.958 24.6326C112.497 24.6326 114.569 23.2016 115.347 20.9275H117.912C117.031 24.6837 113.714 26.8812 109.984 26.8812C105.19 26.9068 101.537 23.3039 101.537 18.5Z" fill="#30475E"/>
<path d="M137.24 19.241H123.223C123.456 22.5884 125.866 24.607 129.182 24.607C131.436 24.607 133.328 23.6616 134.286 21.7963H136.851C135.478 25.2203 132.498 26.9068 129.078 26.9068C124.233 26.9068 120.684 23.5083 120.684 18.5766C120.684 13.6706 124.156 10.1188 129.053 10.1188C134.157 10.1188 137.473 13.9261 137.24 19.241ZM123.353 16.9413H134.571C134.027 14.2327 132.006 12.3929 129.078 12.3929C126.073 12.3929 123.923 14.3094 123.353 16.9413Z" fill="#30475E"/>
<path d="M150.168 10.1699V12.674C149.909 12.6485 149.547 12.6229 149.132 12.6229C145.712 12.6229 143.328 14.8204 143.328 18.9599V26.5746H140.867V10.451H143.328V14.0539C144.313 11.6519 146.282 10.1188 149.158 10.1188C149.547 10.1188 149.909 10.1443 150.168 10.1699Z" fill="#30475E"/>
<path d="M162.449 10.1699V12.674C162.19 12.6485 161.827 12.6229 161.413 12.6229C157.993 12.6229 155.609 14.8204 155.609 18.9599V26.5746H153.122V10.451H155.583V14.0539C156.568 11.6519 158.537 10.1188 161.413 10.1188C161.827 10.1188 162.19 10.1443 162.449 10.1699Z" fill="#30475E"/>
<path d="M181 10.451V26.5746H178.539V23.3039C177.269 25.4758 175.067 26.8812 172.243 26.8812C167.786 26.8812 164.6 23.355 164.6 18.5C164.6 13.5939 167.812 10.1188 172.243 10.1188C175.067 10.1188 177.295 11.5497 178.539 13.7472V10.4254H181V10.451ZM178.565 18.5C178.565 14.9482 176.025 12.4185 172.709 12.4185C169.367 12.4185 167.087 14.9737 167.087 18.5C167.087 22.0518 169.419 24.5815 172.709 24.5815C176.025 24.5815 178.565 22.0518 178.565 18.5Z" fill="#30475E"/>
<path d="M16.6854 37L0 27.7755V23.4827H2.20226V26.4979L16.6854 34.5214L31.1685 26.4979V19.1388L16.6854 11.1153L6.14042 16.9668L5.05225 15.0759L16.6854 8.63672L33.3448 17.8612V27.7755L16.6854 37Z" fill="#30475E"/>
<path d="M16.6854 28.3888L0 19.1388V9.25L16.6854 0L33.3448 9.25V13.1084H31.1685V10.5021L16.6854 2.47859L2.20226 10.5021V17.8612L16.6854 25.8847L26.8417 20.2631L27.9299 22.154L16.6854 28.3888Z" fill="#30475E"/>
</svg>
