<svg width="181" height="38" viewBox="0 0 181 38" fill="none" xmlns="http://www.w3.org/2000/svg">
<g clip-path="url(#clip0_516062_6718)">
<path d="M45.4702 22.0152H48.0093C48.657 24.2638 50.367 25.056 53.3984 25.056C55.8338 25.056 57.6215 24.2127 57.6215 22.654C57.6215 21.0698 55.8079 20.7376 52.8025 20.0221C48.2943 18.8978 46.3252 18.1057 46.3252 15.4738C46.3252 12.3564 49.0975 10.5933 52.9579 10.5933C56.7924 10.5933 59.2538 12.3308 59.9274 15.2183H57.4402C56.8183 13.5829 55.2379 12.893 53.0356 12.893C50.3929 12.893 48.8384 13.8895 48.8384 15.2694C48.8384 16.5725 50.1597 16.9047 53.4502 17.7224C57.6474 18.7445 60.1606 19.3833 60.1606 22.4241C60.1606 25.7459 57.1033 27.3557 53.3984 27.3557C49.0975 27.4068 46.1179 25.4393 45.4702 22.0152Z" fill="white"/>
<path d="M79.3332 10.9511V27.0747H76.8719V23.804C75.6023 25.9759 73.4001 27.3813 70.576 27.3813C66.1197 27.3813 62.9329 23.8551 62.9329 19.0001C62.9329 14.094 66.1456 10.6189 70.576 10.6189C73.4001 10.6189 75.6283 12.0498 76.8719 14.2473V10.9255H79.3332V10.9511ZM76.8719 19.0001C76.8719 15.4483 74.3328 12.9186 71.0165 12.9186C67.7001 12.9186 65.3942 15.4739 65.3942 19.0001C65.3942 22.5519 67.726 25.0816 71.0165 25.0816C74.3587 25.0816 76.8719 22.5519 76.8719 19.0001Z" fill="white"/>
<path d="M97.9618 16.8282V27.0747H95.5004V17.3136C95.5004 14.4007 94.0495 12.9442 91.355 12.9442C88.0127 12.9442 86.1732 15.2694 86.1732 18.8212V27.0747H83.7119V10.9511H86.1732V14.1451C87.2614 11.9732 89.1786 10.6189 92.0286 10.6189C95.7336 10.6189 97.9618 12.8931 97.9618 16.8282Z" fill="white"/>
<path d="M101.537 19.0001C101.537 14.1962 105.19 10.6189 109.984 10.6189C113.792 10.6189 117.057 12.8675 117.912 16.5726H115.347C114.569 14.2729 112.497 12.8675 109.958 12.8675C106.512 12.8675 103.999 15.4483 103.999 19.0001C103.999 22.5775 106.538 25.1327 109.958 25.1327C112.497 25.1327 114.569 23.7018 115.347 21.4276H117.912C117.031 25.1838 113.714 27.3813 109.984 27.3813C105.19 27.4069 101.537 23.804 101.537 19.0001Z" fill="white"/>
<path d="M137.24 19.7411H123.223C123.456 23.0885 125.866 25.1072 129.182 25.1072C131.436 25.1072 133.328 24.1617 134.286 22.2964H136.851C135.478 25.7204 132.498 27.4069 129.078 27.4069C124.233 27.4069 120.684 24.0084 120.684 19.0768C120.684 14.1707 124.156 10.6189 129.053 10.6189C134.157 10.6189 137.473 14.4262 137.24 19.7411ZM123.353 17.4414H134.571C134.027 14.7328 132.006 12.8931 129.078 12.8931C126.073 12.8931 123.923 14.8095 123.353 17.4414Z" fill="white"/>
<path d="M150.168 10.67V13.1741C149.909 13.1486 149.546 13.123 149.132 13.123C145.712 13.123 143.328 15.3206 143.328 19.4601V27.0747H140.867V10.9511H143.328V14.554C144.313 12.152 146.282 10.6189 149.158 10.6189C149.547 10.6189 149.909 10.6444 150.168 10.67Z" fill="white"/>
<path d="M162.449 10.67V13.1741C162.19 13.1486 161.827 13.123 161.413 13.123C157.993 13.123 155.609 15.3206 155.609 19.4601V27.0747H153.122V10.9511H155.583V14.554C156.568 12.152 158.537 10.6189 161.413 10.6189C161.827 10.6189 162.19 10.6444 162.449 10.67Z" fill="white"/>
<path d="M181 10.9511V27.0747H178.539V23.804C177.269 25.9759 175.067 27.3813 172.243 27.3813C167.786 27.3813 164.6 23.8551 164.6 19.0001C164.6 14.094 167.812 10.6189 172.243 10.6189C175.067 10.6189 177.295 12.0498 178.539 14.2473V10.9255H181V10.9511ZM178.565 19.0001C178.565 15.4483 176.025 12.9186 172.709 12.9186C169.367 12.9186 167.087 15.4739 167.087 19.0001C167.087 22.5519 169.419 25.0816 172.709 25.0816C176.025 25.0816 178.565 22.5519 178.565 19.0001Z" fill="white"/>
<path d="M16.6854 37.5L0 28.2755V23.9827H2.20226V26.9979L16.6854 35.0214L31.1685 26.9979V19.6388L16.6854 11.6153L6.14042 17.4668L5.05225 15.5759L16.6854 9.13672L33.3448 18.3612V28.2755L16.6854 37.5Z" fill="white"/>
<path d="M16.6854 28.8888L0 19.6388V9.75L16.6854 0.5L33.3448 9.75V13.6084H31.1685V11.0021L16.6854 2.97859L2.20226 11.0021V18.3612L16.6854 26.3847L26.8417 20.7631L27.9299 22.654L16.6854 28.8888Z" fill="white"/>
</g>
<defs>
<clipPath id="clip0_516062_6718">
<rect width="181" height="37" fill="white" transform="translate(0 0.5)"/>
</clipPath>
</defs>
</svg>
